<svg id="Layer_2" data-name="Layer 2" xmlns="http://www.w3.org/2000/svg" viewBox="0 0 650 692.5"><defs><style>.cls-1{fill:#e7191b;}.cls-2{fill:#f13313;}.cls-3{fill:#fff;}</style></defs><title>ab-php</title><polygon class="cls-1" points="325 0 233.5 0 65.5 64 0 268.5 70 241.5 70 451.5 0 424.5 70 628.5 235 692.5 325 692.5 325 0"/><polygon class="cls-2" points="325 0 416.5 0 584.5 64 650 268.5 580 241.5 580 451.5 650 424.5 580 628.5 415 692.5 325 692.5 325 0"/><polygon class="cls-1" points="579.68 451.17 534 468.5 534 222.5 580.13 241.19 579.68 451.17"/><path class="cls-3" d="M221.22,360.71v67.15s4.06,19.83,28.39,22.08c0,0,12.62,14.42,42.36,13.52s37-18.93,37-18.93V395a49.85,49.85,0,0,0,11.27,1.8v30.64s-1.35,21.18,31.55,23.88c0,0,6.31,11.27,41.91,9.46s35.15-23,35.15-23V350.35A81.83,81.83,0,0,0,453.3,312c-2.7-21.18-10.82-34.7-10.82-34.7H459.6s12.62,11.27,19.83,11.27a17,17,0,0,0,11.72-5,12.87,12.87,0,0,0,0-6.31s20.73-7.66-1.35-16.22c0,0,1.8-10.36-10.36-10.36s-19.38,12.17-19.38,12.17H431.67s-21.18-26.59-70.3-26.59-62.19.9-62.19.9-10.36-15.32-23.43-15.32S256.82,226,256.82,226s-4.06-4.06-15.77-4.06-21.63,6.76-32.9,19.83c0,0-39.54,3-51.82,30.64,0,0-6.31,10.82-6.31,41.91v123.9s0,17.12,21.63,16.22,20.73-13.07,20.73-13.07l6.76-67.15S202.07,356.88,221.22,360.71Z"/><path class="cls-3" d="M327.67,169.34H304.74l-9.11-23.71H253.9l-8.62,23.71H222.93L263.59,65h22.29ZM288.86,128,274.48,89.31,260.38,128Z"/><path class="cls-3" d="M338.92,65h41.72a120.64,120.64,0,0,1,18.48,1A27.16,27.16,0,0,1,410,70.3,26.8,26.8,0,0,1,418,79a23.63,23.63,0,0,1,3.2,12.21,24.74,24.74,0,0,1-14.67,22.64q9.54,2.78,14.67,9.47a25.14,25.14,0,0,1,5.13,15.74A31,31,0,0,1,423,152.93a27.9,27.9,0,0,1-9,10.75,29.86,29.86,0,0,1-14.13,4.95q-5.27.57-25.42.71H338.92ZM360,82.33v24.14h13.81q12.32,0,15.31-.36a13.93,13.93,0,0,0,8.51-3.74,11,11,0,0,0,3.1-8.15A11.46,11.46,0,0,0,398,86.35q-2.67-3-7.94-3.67-3.13-.36-18-.36Zm0,41.51v27.91H379.5q11.39,0,14.45-.64a13.06,13.06,0,0,0,7.65-4.17,12.83,12.83,0,0,0,3-8.86,13.62,13.62,0,0,0-2.28-8,12.88,12.88,0,0,0-6.59-4.77q-4.31-1.5-18.69-1.5Z"/><path class="cls-3" d="M182.78,621.08V513h35q19.9,0,25.95,1.62a28.34,28.34,0,0,1,15.55,10.58q6.26,8.15,6.27,21,0,10-3.61,16.73a29.64,29.64,0,0,1-9.18,10.65,31.63,31.63,0,0,1-11.31,5.12q-7.81,1.55-22.63,1.55H204.6v40.76ZM204.6,531.3V562h11.94q12.9,0,17.25-1.7a14.32,14.32,0,0,0,6.82-5.31,14.52,14.52,0,0,0,2.47-8.4,14,14,0,0,0-3.46-9.73,15.1,15.1,0,0,0-8.77-4.79q-3.91-.74-15.7-.74Z"/><path class="cls-3" d="M283.55,621.08V513h21.82v42.53h42.75V513h21.82V621.08H348.12V573.83H305.36v47.25Z"/><path class="cls-3" d="M392.49,621.08V513h35q19.9,0,25.95,1.62A28.34,28.34,0,0,1,469,525.22q6.26,8.15,6.27,21,0,10-3.61,16.73a29.63,29.63,0,0,1-9.18,10.65,31.64,31.64,0,0,1-11.32,5.12q-7.81,1.55-22.63,1.55H414.31v40.76Zm21.82-89.78V562h11.94q12.9,0,17.25-1.7a14.32,14.32,0,0,0,6.82-5.31,14.52,14.52,0,0,0,2.47-8.4,14,14,0,0,0-3.46-9.73,15.09,15.09,0,0,0-8.77-4.79q-3.91-.74-15.7-.74Z"/></svg>