<?xml version="1.0" encoding="utf-8"?>
<!-- Generator: Adobe Illustrator 21.0.0, SVG Export Plug-In . SVG Version: 6.00 Build 0)  -->
<svg version="1.1" id="Layer_1" xmlns="http://www.w3.org/2000/svg" xmlns:xlink="http://www.w3.org/1999/xlink" x="0px" y="0px"
	 viewBox="0 0 160.7 178" style="enable-background:new 0 0 160.7 178;" xml:space="preserve">
<style type="text/css">
	.st0{fill:#E31E26;}
	.st1{fill:#EE3824;}
	.st2{fill:#FFFFFF;}
	.st3{font-family:'MuseoSansRounded-500';}
	.st4{font-size:36px;}
	.st5{clip-path:url(#SVGID_2_);}
</style>
<title>Logo</title>
<polygon class="st0" points="23.2,26.6 139.1,24.8 138.7,154.5 79.9,170.6 22,154.4 "/>
<polygon class="st1" points="127.8,20.6 80.4,20.6 80.4,158.5 127.8,145 "/>
<polygon class="st1" points="154.1,108.3 80.4,132.3 80.4,175.2 139.1,154.2 "/>
<polygon class="st0" points="6.6,108.3 80.4,132.3 80.4,175.2 21.7,154.2 "/>
<polygon class="st1" points="154.1,70.7 80.3,46.8 80.3,3.8 139.1,24.8 "/>
<polygon class="st0" points="6.6,70.7 80.3,46.8 80.3,3.8 21.6,24.8 "/>
<text transform="matrix(1 0 0 1 56.54 49.97)" class="st2 st3 st4">AB</text>
<text transform="matrix(1 0 0 1 44.55 152.97)" class="st2 st3 st4">PHP</text>
<g>
	<defs>
		<rect id="SVGID_1_" x="-217.3" y="-19.5" width="595.3" height="841.9"/>
	</defs>
	<clipPath id="SVGID_2_">
		<use xlink:href="#SVGID_1_"  style="overflow:visible;"/>
	</clipPath>
	<g class="st5">
		<path class="st2" d="M65,117.6h2.2c1.1-0.1,2.2-0.2,3.3-0.2c0.9,0,1.7,0.1,2.6,0c1.8-0.1,3.1-1.5,3.1-3.3c0-0.1,0-0.2,0-0.3
			c-0.1-0.5-0.2-1.1-0.4-1.6c-0.6-1.2-0.9-2.6-0.9-3.9c-0.1-1.7,0.3-3.3,1.2-4.7c0.7-1.2,2.2-1.8,3.6-1.4c1.1,0.3,2.2,0.7,3.3,1
			c1.4,0.6,3,0.7,4.5,0.3c0.5-0.1,1.1-0.2,1.6-0.2c1.3-0.1,2.7,0.3,3.7,1.1c1.1,0.9,1.1,1.9,0,2.7c-0.3,0.2-0.6,0.5-0.9,0.8
			c-1.4,1.8-2.2,4-2.2,6.3c-0.1,1.4,0.9,2.6,2.3,2.8c0.2,0,0.4,0.1,0.7,0.1c2.5,0.4,5,0.5,7.4,0.2c1.9-0.2,3.8-0.9,5.4-2
			c0.6-0.3,0.9-0.9,1-1.5c0-0.9,0-1.8-0.1-2.7c-0.4-2.4-0.9-4.8-1.3-7.2c-0.4-2.2-0.1-4.6,1-6.6c0.7-1.2,1.2-2.6,1.8-3.8
			c1.3-2.7,2.7-5.3,4.1-8c0.5-1,0.7-1,1.4-0.1s1.5,2,2.2,3c0.3,0.4,0.7,0.8,1,1.2c0.2,0.2,0.4,0.3,0.6,0v-2.2c0-0.1,0-0.3,0-0.4
			c-0.2-2.8-1-5.4-2.3-7.9c-2.1-4-5.4-7.3-9.3-9.5c-7.2-4.2-15.6-6-23.8-5c-1.8,0.3-3.6,0-5.3-0.8c-0.9-0.5-1.8-1.1-2.6-1.7
			c-1.8-1.2-3.8-2-5.9-2.3c-0.9-0.2-1.8-0.3-2.7-0.4h-3.5c-0.1,0-0.2,0.1-0.4,0.1c-2.2,0.2-4.3,0.6-6.4,1.3
			c-1.5,0.4-2.9,1.1-4.2,1.9c-1.9,1.5-3.6,3.2-5.1,5.1c-2.5,3.1-4.1,6.8-4.8,10.7c-0.2,1.2-0.2,2.3-0.4,3.5v0.7
			c0,0.2,0.1,0.5,0.1,0.8c0.1,2.4,0.6,4.8,1.4,7.1c1.8,4.8,4.6,9.1,8.2,12.6c0.4,0.3,0.6,0.8,0.8,1.2c0.4,1.1-0.1,2.3-1.1,2.7
			c-0.2,0.1-0.3,0.1-0.5,0.1c-0.7,0.1-1.4-0.1-1.9-0.6c-1.1-0.8-2.6-0.7-3.5,0.3c-0.7,0.7-1.1,1.5-1.2,2.5c-0.3,1.2,0.5,2.4,1.7,2.7
			c0.2,0,0.4,0.1,0.6,0.1c1.9,0,3.9-0.2,5.8-0.4c1.7-0.1,3.2-1,4.2-2.4c0.5-0.9,1-1.8,1.4-2.7c0.1-0.3,0.2-0.6,0.2-0.9
			c0-1.6-0.4-3.2-1.1-4.7c-0.8-1.9-1.7-3.7-2.6-5.6c-0.3-0.6-0.4-1.3-0.5-1.9c-0.1-0.4,0.1-0.9,0.5-1c0.1,0,0.3,0,0.5,0
			c0.7,0.1,1.3,0.2,1.9,0.4c2.9,1.2,5.6,2.9,7.9,5.1c1,0.9,1.9,1.9,2.8,3c0.7,0.8,0.8,2,0.3,2.9c-0.4,0.9-0.9,1.8-1.5,2.7
			c-0.7,1.1-1.5,2.2-2.1,3.3c-0.8,1.3-1,2.7-0.8,4.2C62.2,115.7,62.9,117.2,65,117.6C65,117.5,65,117.6,65,117.6"/>
	</g>
</g>
</svg>
